 http://www.imdb.com/title/tt1517260/


Plot: When an unseen enemy threatens mankind by taking over their bodies and erasing their memories, Melanie will risk everything to protect the people she cares most about, proving that love can conquer all in a dangerous new world.



Director:
Andrew Niccol

Writers:
Stephenie Meyer (novel), Andrew Niccol (screenplay)

Stars:
Saoirse Ronan, Max Irons, Jake Abel

Genres:
Action | Adventure | Romance | Sci-Fi | Thriller

Country:
USA

Language:
English




Format : AVI
Format/Info : Audio Video Interleave
File size : 693 MiB
Duration : 1h 51mn
Overall bit rate : 866 Kbps
Writing application : Lavf54.59.103

Video
ID : 0
Format : MPEG-4 Visual
Format profile : Simple@L3
Format settings, BVOP : No
Format settings, QPel : No
Format settings, GMC : No warppoints
Format settings, Matrix : Default (H.263)
Codec ID : XVID
Codec ID/Hint : XviD
Duration : 1h 51mn
Bit rate : 791 Kbps
Width : 640 pixels
Height : 288 pixels
Display aspect ratio : 2.118
Frame rate : 25.000 fps
Color space : YUV
Chroma subsampling : 4:2:0
Bit depth : 8 bits
Scan type : Progressive
Compression mode : Lossy
Bits/(Pixel*Frame) : 0.172
Stream size : 633 MiB (91%)
Writing library : XviD 64

Audio
ID : 1
Format : AC-3
Format/Info : Audio Coding 3
Mode extension : CM (complete main)
Format settings, Endianness : Big
Codec ID : 2000
Duration : 1h 51mn
Bit rate mode : Constant
Bit rate : 64.0 Kbps
Channel(s) : 2 channels
Channel positions : Front: L R
Sampling rate : 48.0 KHz
Bit depth : 16 bits
Compression mode : Lossy
Stream size : 51.2 MiB (7%)
Alignment : Aligned on interleaves
Interleave, duration : 32 ms (0.80 video frame)
Title : audio-eng

 
http://imgbox.com/g/8ZsiKnCPAu